<svg xmlns="http://www.w3.org/2000/svg" width="310" height="130" style="overflow: visible;" viewBox="0 0 310 130" data-svgdocument="" id="_UvrcDkox5wHXEUzaO9hmm" class="fl-svgdocument" x="0" y="0" xmlns:xlink="http://www.w3.org/1999/xlink">
	<defs id="_oGllWDGhm8hIraSVzjzyb" transform="matrix(0.6082359552383423, 0, 0, 0.6082359552383423, -14.576348304748535, 187.8001708984375)" data-uid="o_elbkl2m70_6"></defs><path id="_1QTd3wo_sWXn34LSqHfIq" fill="#172b2b" transform="matrix(0.34900394082069397, 0, 0, 0.34900394082069397, 132.21529861504894, 49.40467314908156)" text="NameSilo" text-anchor="start" font-size="100" letter-spacing="0" side="left" offset="0" dx="0" dy="0" space="preserve" href="" font-family="Offside" font-scale="contain" x="0" y="0" data-fl-textpath="" data-uid="o_elbkl2m70_7" d="M 20-67L 20-67L 19-67L 19-1.8Q 19 0.5  15 0.5Q 11 0.5  11-1.8L 11-1.8L 11-66.5Q 11-70.9  12.05-72.45Q 13.1-74  17-74L 17-74L 19.2-74Q 26.2-74  28.6-72.4Q 31-70.8  32.6-64.4L 32.6-64.4L 45.6-11.9Q 46.5-8.3  47.3-7.4Q 48.1-6.5  51.3-6.5L 51.3-6.5L 52.3-6.5L 52.3-71.7Q 52.3-74  56.3-74Q 60.3-74  60.3-71.7L 60.3-71.7L 60.3-7Q 60.3-2.6  59.25-1.05Q 58.2 0.5  54.3 0.5L 54.3 0.5L 52.1 0.5Q 45.1 0.5  42.7-1.1Q 40.3-2.7  38.7-9.1L 38.7-9.1L 25.7-61.6Q 24.8-65.2  24-66.1Q 23.2-67  20-67ZM 107.6 0L 107.6 0L 95.9 0Q 87.1 0  83.2-3.6Q 79.3-7.2  79.3-15.8L 79.3-15.8L 79.3-16.6Q 79.3-25.1  82.8-28.3Q 86.3-31.5  95.3-32.4L 95.3-32.4L 112.6-34.1L 112.6-45.2Q 112.6-53  99-53L 99-53L 85.3-53Q 83.3-53  83.3-56.5Q 83.3-60  85.3-60L 85.3-60L 99-60Q 108.8-60  114.69999999999999-56.25Q 120.6-52.5  120.6-44.2L 120.6-44.2L 120.6-14.7Q 120.6-8.2  122.9-4.4L 122.9-4.4Q 123.6-3.2  123.6-2.9L 123.6-2.9Q 123.6-1.7  121.69999999999999-0.35Q 119.8 1  118.5 1L 118.5 1Q 116.3 1  114.44999999999999-3.15Q 112.6-7.3  112.6-13.7L 112.6-13.7L 112.6-27.1L 95.9-25.4Q 90.5-24.8  88.9-23Q 87.3-21.2  87.3-16.6L 87.3-16.6L 87.3-15.8Q 87.3-11  88.94999999999999-9Q 90.6-7  95.9-7L 95.9-7L 107.6-7Q 109.6-7  109.6-3.5Q 109.6 0  107.6 0ZM 142.6-1.8L 142.6-1.8L 142.6-45.7Q 142.6-53.9  148.35-57.7Q 154.1-61.5  164.3-61.5Q 174.5-61.5  179.89999999999998-56.2L 179.89999999999998-56.2Q 185.2-61.5  195.39999999999998-61.5L 195.39999999999998-61.5Q 217.2-61.5  217.2-45.7L 217.2-45.7L 217.2-1.8Q 217.2 0.5  213.2 0.5Q 209.2 0.5  209.2-1.8L 209.2-1.8L 209.2-46.7Q 209.2-54.5  196.55-54.5Q 183.89999999999998-54.5  183.89999999999998-46.5L 183.89999999999998-46.5L 183.89999999999998-1.8Q 183.89999999999998 0.5  179.89999999999998 0.5Q 175.89999999999998 0.5  175.89999999999998-1.8L 175.89999999999998-1.8L 175.89999999999998-46.7Q 175.89999999999998-54.5  163.25-54.5Q 150.6-54.5  150.6-46.7L 150.6-46.7L 150.6-1.8Q 150.6 0.5  146.6 0.5Q 142.6 0.5  142.6-1.8ZM 281.99999999999994-45.9L 281.99999999999994-45.9L 281.99999999999994-42.9Q 281.99999999999994-34.4  278.49999999999994-31.2Q 274.99999999999994-28  265.69999999999993-27.1L 265.69999999999993-27.1L 246.19999999999996-25.2L 246.19999999999996-13.3Q 246.19999999999996-5.5  259.19999999999993-5.5L 259.19999999999993-5.5Q 273.99999999999994-5.5  273.99999999999994-12.3L 273.99999999999994-12.3L 273.99999999999994-16.1Q 273.99999999999994-18.4  277.99999999999994-18.4Q 281.99999999999994-18.4  281.99999999999994-16.1L 281.99999999999994-16.1L 281.99999999999994-13.3Q 281.99999999999994 1.5  259.99999999999994 1.5L 259.99999999999994 1.5Q 250.29999999999995 1.5  244.24999999999997-2.3Q 238.19999999999996-6.1  238.19999999999996-14.3L 238.19999999999996-14.3L 238.19999999999996-45.7Q 238.19999999999996-54  244.59999999999997-57.75Q 250.99999999999997-61.5  261.29999999999995-61.5Q 271.59999999999997-61.5  276.79999999999995-57.9Q 281.99999999999994-54.3  281.99999999999994-45.9ZM 246.19999999999996-46.7L 246.19999999999996-46.7L 246.19999999999996-32.2L 264.99999999999994-34.1Q 270.69999999999993-34.7  272.34999999999997-36.5Q 273.99999999999994-38.3  273.99999999999994-42.9L 273.99999999999994-42.9L 273.99999999999994-46.7Q 273.99999999999994-54.5  260.09999999999997-54.5Q 246.19999999999996-54.5  246.19999999999996-46.7ZM 337.7-13.3L 337.7-13.3L 337.7-24.6Q 337.7-27.9  335.1-29.4Q 332.5-30.9  326.1-32.4L 326.1-32.4L 317.2-34.4Q 311.1-35.8  308-37.5L 308-37.5Q 301.4-41  301.4-52L 301.4-52L 301.4-59.7Q 301.4-68  307.35-71.75Q 313.3-75.5  323.1-75.5Q 332.9-75.5  338.8-71.75Q 344.7-68  344.7-59.7L 344.7-59.7L 344.7-55.3Q 344.7-53  340.7-53Q 336.7-53  336.7-55.3L 336.7-55.3L 336.7-60.7Q 336.7-68.5  323.05-68.5Q 309.4-68.5  309.4-60.7L 309.4-60.7L 309.4-52.2Q 309.4-46.7  311.05-44.65Q 312.7-42.6  317.2-41.6L 317.2-41.6L 326.1-39.6Q 335.7-37.5  337.05-36.75Q 338.4-36  340.2-35.1Q 342-34.2  342.65-33.25Q 343.3-32.3  344.2-30.9L 344.2-30.9Q 345.7-28.6  345.7-23.8L 345.7-23.8L 345.7-14.3Q 345.7-6.1  339.15-2.3Q 332.6 1.5  322.65 1.5Q 312.7 1.5  306.35-2.3Q 300-6.1  300-14.3L 300-14.3L 300-18.7Q 300-21  304-21Q 308-21  308-18.7L 308-18.7L 308-13.3Q 308-9.2  312.15-7.35Q 316.3-5.5  322.65-5.5Q 329-5.5  333.35-7.4Q 337.7-9.3  337.7-13.3ZM 372.7-58.2L 372.7-58.2L 372.7-11.7Q 372.7-8.5  374.2-5.75Q 375.7-3  375.7-2.9L 375.7-2.9Q 375.7-1.7  373.8-0.35Q 371.9 1  370.59999999999997 1L 370.59999999999997 1Q 368.5 1  366.59999999999997-2.65Q 364.7-6.3  364.7-10.7L 364.7-10.7L 364.7-58.2Q 364.7-60.5  368.7-60.5Q 372.7-60.5  372.7-58.2ZM 373-79.5L 373-79.5L 373-70.8Q 373-68.3  368.65-68.3Q 364.3-68.3  364.3-70.8L 364.3-70.8L 364.3-79.5Q 364.3-82  368.65-82Q 373-82  373-79.5ZM 402.7-77.7L 402.7-77.7L 402.7-11.7Q 402.7-8.5  404.2-5.75Q 405.7-3  405.7-2.9L 405.7-2.9Q 405.7-1.7  403.8-0.35Q 401.9 1  400.59999999999997 1L 400.59999999999997 1Q 398.5 1  396.59999999999997-2.65Q 394.7-6.3  394.7-10.7L 394.7-10.7L 394.7-77.7Q 394.7-80  398.7-80Q 402.7-80  402.7-77.7ZM 459-13.3L 459-13.3L 459-46.7Q 459-54.5  445.34999999999997-54.5Q 431.7-54.5  431.7-46.7L 431.7-46.7L 431.7-13.3Q 431.7-5.5  445.34999999999997-5.5Q 459-5.5  459-13.3ZM 467-45.7L 467-45.7L 467-14.3Q 467-6  461.09999999999997-2.25Q 455.2 1.5  445.4 1.5Q 435.59999999999997 1.5  429.65-2.25Q 423.7-6  423.7-14.3L 423.7-14.3L 423.7-45.7Q 423.7-54  429.59999999999997-57.75Q 435.5-61.5  445.3-61.5Q 455.09999999999997-61.5  461.05-57.75Q 467-54  467-45.7Z"></path><path id="_E5uoMq99VZhwtPtcRHveS" fill="#172b2b" transform="matrix(0.6350589990615845, 0, 0, 0.6350589990615845, 129.06869297439914, 104.3601272027125)" text="DDNS" text-anchor="start" font-size="100" letter-spacing="0" side="left" offset="0" dx="0" dy="0" space="preserve" href="" font-family="Offside" font-scale="contain" x="0" y="0" data-fl-textpath="" data-uid="o_elbkl2m70_8" d="M 19-67L 19-7L 37.8-7Q 44.2-7  46.75-8.7Q 49.3-10.4  49.3-14.8L 49.3-14.8L 49.3-59.2Q 49.3-63.6  46.75-65.3Q 44.2-67  37.8-67L 37.8-67L 19-67ZM 11-7.5L 11-7.5L 11-66.5Q 11-70.9  12.05-72.45Q 13.1-74  17-74L 17-74L 37.8-74Q 47.8-74  52.55-70.4Q 57.3-66.8  57.3-58.2L 57.3-58.2L 57.3-15.8Q 57.3-7.2  52.55-3.6Q 47.8 0  37.8 0L 37.8 0L 17 0Q 13.1 0  12.05-1.55Q 11-3.1  11-7.5ZM 87.29999999999998-67L 87.29999999999998-7L 106.09999999999998-7Q 112.49999999999999-7  115.04999999999998-8.7Q 117.59999999999998-10.4  117.59999999999998-14.8L 117.59999999999998-14.8L 117.59999999999998-59.2Q 117.59999999999998-63.6  115.04999999999998-65.3Q 112.49999999999999-67  106.09999999999998-67L 106.09999999999998-67L 87.29999999999998-67ZM 79.29999999999998-7.5L 79.29999999999998-7.5L 79.29999999999998-66.5Q 79.29999999999998-70.9  80.34999999999998-72.45Q 81.39999999999998-74  85.29999999999998-74L 85.29999999999998-74L 106.09999999999998-74Q 116.09999999999998-74  120.84999999999998-70.4Q 125.59999999999998-66.8  125.59999999999998-58.2L 125.59999999999998-58.2L 125.59999999999998-15.8Q 125.59999999999998-7.2  120.84999999999998-3.6Q 116.09999999999998 0  106.09999999999998 0L 106.09999999999998 0L 85.29999999999998 0Q 81.39999999999998 0  80.34999999999998-1.55Q 79.29999999999998-3.1  79.29999999999998-7.5ZM 156.6-67L 156.6-67L 155.6-67L 155.6-1.8Q 155.6 0.5  151.6 0.5Q 147.6 0.5  147.6-1.8L 147.6-1.8L 147.6-66.5Q 147.6-70.9  148.65-72.45Q 149.7-74  153.6-74L 153.6-74L 155.79999999999998-74Q 162.79999999999998-74  165.2-72.4Q 167.6-70.8  169.2-64.4L 169.2-64.4L 182.2-11.9Q 183.1-8.3  183.89999999999998-7.4Q 184.7-6.5  187.89999999999998-6.5L 187.89999999999998-6.5L 188.89999999999998-6.5L 188.89999999999998-71.7Q 188.89999999999998-74  192.89999999999998-74Q 196.89999999999998-74  196.89999999999998-71.7L 196.89999999999998-71.7L 196.89999999999998-7Q 196.89999999999998-2.6  195.85-1.05Q 194.8 0.5  190.89999999999998 0.5L 190.89999999999998 0.5L 188.7 0.5Q 181.7 0.5  179.3-1.1Q 176.89999999999998-2.7  175.3-9.1L 175.3-9.1L 162.29999999999998-61.6Q 161.4-65.2  160.6-66.1Q 159.79999999999998-67  156.6-67ZM 253.59999999999997-13.3L 253.59999999999997-13.3L 253.59999999999997-24.6Q 253.59999999999997-27.9  250.99999999999997-29.4Q 248.39999999999998-30.9  241.99999999999997-32.4L 241.99999999999997-32.4L 233.09999999999997-34.4Q 226.99999999999997-35.8  223.89999999999998-37.5L 223.89999999999998-37.5Q 217.29999999999998-41  217.29999999999998-52L 217.29999999999998-52L 217.29999999999998-59.7Q 217.29999999999998-68  223.24999999999997-71.75Q 229.2-75.5  238.99999999999997-75.5Q 248.79999999999998-75.5  254.7-71.75Q 260.59999999999997-68  260.59999999999997-59.7L 260.59999999999997-59.7L 260.59999999999997-55.3Q 260.59999999999997-53  256.59999999999997-53Q 252.59999999999997-53  252.59999999999997-55.3L 252.59999999999997-55.3L 252.59999999999997-60.7Q 252.59999999999997-68.5  238.95-68.5Q 225.29999999999998-68.5  225.29999999999998-60.7L 225.29999999999998-60.7L 225.29999999999998-52.2Q 225.29999999999998-46.7  226.95-44.65Q 228.59999999999997-42.6  233.09999999999997-41.6L 233.09999999999997-41.6L 241.99999999999997-39.6Q 251.59999999999997-37.5  252.95-36.75Q 254.29999999999998-36  256.09999999999997-35.1Q 257.9-34.2  258.54999999999995-33.25Q 259.2-32.3  260.09999999999997-30.9L 260.09999999999997-30.9Q 261.59999999999997-28.6  261.59999999999997-23.8L 261.59999999999997-23.8L 261.59999999999997-14.3Q 261.59999999999997-6.1  255.04999999999998-2.3Q 248.49999999999997 1.5  238.54999999999998 1.5Q 228.59999999999997 1.5  222.24999999999997-2.3Q 215.89999999999998-6.1  215.89999999999998-14.3L 215.89999999999998-14.3L 215.89999999999998-18.7Q 215.89999999999998-21  219.89999999999998-21Q 223.89999999999998-21  223.89999999999998-18.7L 223.89999999999998-18.7L 223.89999999999998-13.3Q 223.89999999999998-9.2  228.04999999999998-7.35Q 232.2-5.5  238.54999999999998-5.5Q 244.89999999999998-5.5  249.24999999999997-7.4Q 253.59999999999997-9.3  253.59999999999997-13.3Z"></path><g id="_UnGaE1vwjOuJLzNs4BCBI" transform="matrix(0.8114024996757507, 0, 0, 0.8114024996757507, 11.859502758176461, -146.3931273838816)" data-uid="o_elbkl2m70_9"><path id="_-ixtcTtqQw2bTqkFRNNwg" d="M96.369,50.611c0-0.001,0-0.002,0-0.004c0-0.632-0.268-1.263-0.705-1.724c-0.681-0.656-1.748-0.874-2.647-0.51  c-0.292,0.121-0.56,0.292-0.802,0.51c-0.436,0.461-0.704,1.092-0.704,1.724c0,0.014,0.004,0.027,0.004,0.041  C91.495,73.524,72.88,92.127,50,92.127v0.03c-0.632,0.002-1.265,0.232-1.724,0.691c-0.438,0.436-0.705,1.067-0.705,1.701  c0,0.655,0.242,1.262,0.705,1.724c0.461,0.46,1.069,0.705,1.724,0.705v0.007c25.571,0,46.374-20.803,46.374-46.374H96.369z" stroke="none" fill="#d95b2e" transform="matrix(1.3852806091308594, 0, 0, 1.3852806091308594, -6.331367015838623, 187.4910888671875)" stroke-width="1" data-uid="o_elbkl2m70_10"></path><path id="_pQ7fFyXDN--B4bq4tkzct" d="M17.208,79.975c-0.948,0.946-0.948,2.476,0,3.423c0.485,0.463,1.092,0.705,1.724,0.705c0.607,0,1.238-0.242,1.725-0.705  c0.923-0.946,0.923-2.477,0-3.423C19.686,79.026,18.154,79.026,17.208,79.975z" stroke="none" fill="#3bad67" transform="matrix(1.3852806091308594, 0, 0, 1.3852806091308594, -6.229457378387451, 187.40025329589844)" stroke-width="1" data-uid="o_elbkl2m70_11"></path><path id="_dspI2JXDHAXBXqX9Q5vzG" d="M39.239,90.711c-1.287-0.342-2.624,0.436-2.964,1.724c-0.364,1.286,0.414,2.624,1.701,2.986  c0.218,0.05,0.438,0.074,0.632,0.074c1.069,0,2.064-0.728,2.356-1.798C41.304,92.386,40.526,91.074,39.239,90.711z" stroke="none" fill="#3bad67" transform="matrix(1.3852806091308594, 0, 0, 1.3852806091308594, -5.797571659088135, 188.27699279785156)" stroke-width="1" data-uid="o_elbkl2m70_12"></path><path id="_2qb_rkwKZnE3VM86JAbsE" d="M29.231,86.558c-1.166-0.657-2.647-0.268-3.328,0.899c-0.655,1.165-0.267,2.647,0.899,3.326  c0.389,0.221,0.802,0.318,1.214,0.318c0.827,0,1.652-0.439,2.114-1.214C30.786,88.719,30.397,87.236,29.231,86.558z" stroke="none" fill="#3bad67" transform="matrix(1.3852806091308594, 0, 0, 1.3852806091308594, -4.967136383056641, 187.43295288085938)" stroke-width="1" data-uid="o_elbkl2m70_13"></path><path id="_g5vYrJHOsAKL7hVVi1Qc6" d="M10.721,70.477c-1.166,0.678-1.554,2.161-0.898,3.328c0.024,0,0.024,0,0.024,0c0.438,0.776,1.263,1.214,2.089,1.214  c0.414,0,0.827-0.097,1.215-0.342c1.167-0.655,1.555-2.137,0.899-3.302C13.37,70.209,11.888,69.82,10.721,70.477z" stroke="none" fill="#3bad67" transform="matrix(1.3852806091308594, 0, 0, 1.3852806091308594, -6.240623474121094, 187.54519653320312)" stroke-width="1" data-uid="o_elbkl2m70_14"></path><path id="_uLJozuwtP6HTTVkwVH-UH" d="M9.896,61.368c-0.364-1.288-1.676-2.066-2.988-1.701c-1.287,0.339-2.065,1.677-1.7,2.963  c0.291,1.094,1.262,1.798,2.332,1.798c0.218,0,0.413-0.024,0.631-0.074C9.459,64.016,10.236,62.68,9.896,61.368z" stroke="none" fill="#3bad67" transform="matrix(1.3852806091308594, 0, 0, 1.3852806091308594, -5.7041730880737305, 188.35116577148438)" stroke-width="1" data-uid="o_elbkl2m70_15"></path><path id="_Ip4rHySFXWoy3VpWHFJMT" d="M6.058,53.035c0.656,0,1.263-0.242,1.725-0.705c0.438-0.46,0.704-1.067,0.704-1.723c0-0.006-0.002-0.011-0.002-0.017  C8.496,27.708,27.115,9.096,50,9.096c0.146,0,0.315-0.025,0.485-0.049c0.146-0.025,0.292-0.074,0.438-0.146  c0.146-0.049,0.292-0.122,0.438-0.219c0.121-0.096,0.242-0.193,0.364-0.291c0.218-0.243,0.388-0.51,0.51-0.802  c0.146-0.292,0.195-0.607,0.195-0.923c0-0.317-0.049-0.632-0.195-0.924c-0.122-0.291-0.292-0.559-0.51-0.801  c-0.122-0.097-0.243-0.195-0.364-0.292c-0.146-0.097-0.292-0.171-0.438-0.219c-0.146-0.072-0.292-0.121-0.438-0.145  C50.323,4.257,50.161,4.254,50,4.256V4.238c-25.57,0-46.373,20.803-46.373,46.373H3.63c0,0.314,0.049,0.629,0.17,0.919  c0.121,0.291,0.315,0.559,0.534,0.801c0.243,0.221,0.486,0.389,0.802,0.536C5.427,52.988,5.742,53.035,6.058,53.035z" stroke="none" fill="#3bad67" transform="matrix(1.3852806091308594, 0, 0, 1.3852806091308594, -5.024413108825684, 187.4349365234375)" stroke-width="1" data-uid="o_elbkl2m70_16"></path><path id="_HGwyy7ZnF539dP6BTXIPI" d="M90.102,39.846c0.292,1.094,1.264,1.798,2.356,1.798c0.195,0,0.413-0.025,0.607-0.074c1.312-0.364,2.09-1.676,1.724-2.988  c-0.339-1.287-1.675-2.064-2.963-1.725C90.515,37.223,89.763,38.535,90.102,39.846z" stroke="none" fill="#d95b2e" transform="matrix(1.3852806091308594, 0, 0, 1.3852806091308594, -5.569147109985352, 188.07308959960938)" stroke-width="1" data-uid="o_elbkl2m70_17"></path><path id="_GcWvwr7qTZlPzNG8SiBCy" d="M88.062,31.054c0.413,0,0.826-0.097,1.215-0.317c1.165-0.68,1.554-2.161,0.875-3.327c-0.657-1.167-2.14-1.555-3.304-0.899  c-1.167,0.68-1.58,2.161-0.899,3.328C86.411,30.617,87.211,31.054,88.062,31.054z" stroke="none" fill="#d95b2e" transform="matrix(1.3852806091308594, 0, 0, 1.3852806091308594, -5.013798236846924, 187.49728393554688)" stroke-width="1" data-uid="o_elbkl2m70_18"></path><path id="_XRtVhfirZvbB98UKTQ59R" d="M60.759,10.504c0.218,0.049,0.413,0.074,0.631,0.074c1.07,0,2.042-0.704,2.332-1.798c0.342-1.287-0.413-2.622-1.698-2.963  c-1.312-0.364-2.65,0.413-2.989,1.724C58.696,8.828,59.471,10.164,60.759,10.504z" stroke="none" fill="#d95b2e" transform="matrix(1.3852806091308594, 0, 0, 1.3852806091308594, -5.478403091430664, 188.14244079589844)" stroke-width="1" data-uid="o_elbkl2m70_19"></path><path id="_AfIp7rS0l5UTuIKbNW6L5" d="M70.767,14.658c0.365,0.218,0.802,0.315,1.215,0.315c0.826,0,1.651-0.438,2.09-1.214c0.678-1.142,0.292-2.648-0.875-3.304  c-1.167-0.68-2.647-0.291-3.328,0.875C69.188,12.496,69.6,13.978,70.767,14.658z" stroke="none" fill="#d95b2e" transform="matrix(1.3852806091308594, 0, 0, 1.3852806091308594, -6.287906169891357, 187.59776306152344)" stroke-width="1" data-uid="o_elbkl2m70_20"></path><path id="_HkN08e0cJSHuvtrBZcai5" d="M81.067,21.969c0.631,0,1.238-0.243,1.725-0.705c0.946-0.971,0.946-2.501,0-3.449c-0.949-0.948-2.503-0.948-3.425,0  c-0.973,0.948-0.973,2.501,0,3.449C79.829,21.726,80.46,21.969,81.067,21.969z" stroke="none" fill="#d95b2e" transform="matrix(1.3852806091308594, 0, 0, 1.3852806091308594, -5.037712574005127, 187.62063598632812)" stroke-width="1" data-uid="o_elbkl2m70_21"></path><path id="_RhLojZlC3_rRPO8uTLNXV" d="M50.44,2.265c-26.312,0-47.72,21.407-47.72,47.72s21.407,47.72,47.72,47.72c26.314,0,47.721-21.407,47.721-47.72  S76.753,2.265,50.44,2.265z M47.96,29.008c-3.835-0.209-7.668-0.895-11.505-2.052c2.865-5.306,6.702-10.624,11.505-15.934V29.008z   M47.96,33.901v13.682H30.224c0.318-5.353,1.668-10.744,4.033-16.153C38.815,32.86,43.384,33.678,47.96,33.901z M47.96,52.541v12.71  c-4.661,0.256-9.32,1.174-13.974,2.788c-2.191-5.19-3.457-10.362-3.763-15.498H47.96z M47.96,70.157v18.942  c-4.996-5.523-8.951-11.055-11.85-16.573C40.067,71.19,44.015,70.4,47.96,70.157z M52.918,70.143  c3.961,0.215,7.924,0.982,11.896,2.299c-2.903,5.547-6.874,11.107-11.896,16.659C52.918,89.101,52.918,70.143,52.918,70.143z   M52.918,65.237V52.541h17.737c-0.304,5.108-1.558,10.251-3.726,15.411C62.262,66.36,57.59,65.463,52.918,65.237z M52.918,47.583  V33.905c4.57-0.213,9.145-1.02,13.72-2.437c2.355,5.396,3.699,10.775,4.017,16.115H52.918z M52.918,29.013V11.021  c4.814,5.323,8.659,10.654,11.526,15.973C60.592,28.14,56.751,28.814,52.918,29.013z M56.615,7.721  c9.219,1.343,17.501,5.596,23.838,11.85c-3.774,2.368-7.528,4.3-11.266,5.783C66.095,19.452,61.9,13.567,56.615,7.721z   M31.721,25.297c-3.717-1.497-7.442-3.447-11.178-5.832c6.322-6.194,14.556-10.409,23.721-11.744  C38.996,13.549,34.812,19.415,31.721,25.297z M29.577,29.754c-2.56,5.941-3.999,11.891-4.314,17.828H7.8  c0.515-9.205,3.917-17.643,9.365-24.395C21.289,25.875,25.427,28.072,29.577,29.754z M25.263,52.541  c0.306,5.767,1.682,11.546,4.105,17.316c-4.061,1.803-8.115,4.145-12.16,6.983c-5.444-6.724-8.855-15.128-9.401-24.299  C7.807,52.541,25.263,52.541,25.263,52.541z M31.458,74.332c3.083,5.988,7.303,11.959,12.642,17.891  c-9.082-1.359-17.242-5.548-23.522-11.687C24.218,78.019,27.844,75.94,31.458,74.332z M69.476,74.227  c3.64,1.598,7.292,3.669,10.959,6.188c-6.297,6.207-14.511,10.439-23.655,11.808C62.149,86.256,66.389,80.25,69.476,74.227z   M71.555,69.748c2.395-5.734,3.757-11.476,4.06-17.207h17.458c-0.543,9.11-3.916,17.459-9.297,24.16  C79.71,73.865,75.636,71.537,71.555,69.748z M75.615,47.583c-0.313-5.918-1.746-11.849-4.289-17.77  c4.165-1.664,8.327-3.837,12.485-6.499c5.391,6.731,8.759,15.12,9.271,24.269H75.615z" stroke="none" fill="#172b2b" transform="matrix(0.8701480627059937, 0, 0, 0.8701480627059937, 20.137035369873047, 214.0997314453125)" stroke-width="1" data-uid="o_elbkl2m70_22"></path></g></svg>